# xmcd
#
# Track frame offsets: 
#        150
#        27277
#        52550
#        72479
#        94344
#        121512
#        136118
#        159285
#        181752
#        206898
#        228170
#        247591
#        273823
#        293149
#        315345
#
# Disc length: 4532 seconds
#
# Revision: 0
# Processed by: cddbd v1.5.2PL0 Copyright (c) Steve Scherf et al.
# Submitted via: ExactAudioCopy v0.99pb5
#
DISCID=b511b20f
DTITLE=Various Artist - Pumping House Vol. 1 Prosvet Birthday Party
DYEAR=2006
DGENRE=House
TTITLE0=VA - Track01
TTITLE1=VA - Track02
TTITLE2=VA - Track03
TTITLE3=VA - Track04
TTITLE4=VA - Track05
TTITLE5=VA - Track06
TTITLE6=VA - Track07
TTITLE7=VA - Track08
TTITLE8=VA - Track09
TTITLE9=VA - Track10
TTITLE10=VA - Track11
TTITLE11=VA - Track12
TTITLE12=VA - Track13
TTITLE13=VA - Track14
TTITLE14=VA - Track15
EXTD=
EXTT0=
EXTT1=
EXTT2=
EXTT3=
EXTT4=
EXTT5=
EXTT6=
EXTT7=
EXTT8=
EXTT9=
EXTT10=
EXTT11=
EXTT12=
EXTT13=
EXTT14=
PLAYORDER=
